<?xml version="1.0" encoding="UTF-8"?>
<svg id="Calque_2" data-name="Calque 2" xmlns="http://www.w3.org/2000/svg" xmlns:xlink="http://www.w3.org/1999/xlink" viewBox="0 0 538.25 561.72">
  <defs>
    <style>
      .cls-1 {
        fill: url(#Dégradé_sans_nom_7);
        filter: url(#drop-shadow-1);
      }

      .cls-1, .cls-2 {
        opacity: .5;
      }

      .cls-3 {
        fill: #642a37;
      }

      .cls-4 {
        fill: #faf3f3;
      }

      .cls-2 {
        fill: url(#Dégradé_sans_nom_7-2);
        filter: url(#drop-shadow-2);
      }
    </style>
    <linearGradient id="Dégradé_sans_nom_7" data-name="Dégradé sans nom 7" x1="348.16" y1="88.55" x2="89.62" y2="536.37" gradientTransform="translate(-21.24 -53.03) rotate(-3.39)" gradientUnits="userSpaceOnUse">
      <stop offset="0" stop-color="#faf3f3"/>
      <stop offset=".12" stop-color="#f7eced"/>
      <stop offset=".28" stop-color="#efdbde"/>
      <stop offset=".47" stop-color="#e3bec6"/>
      <stop offset=".68" stop-color="#d195a4"/>
      <stop offset=".9" stop-color="#bb6279"/>
      <stop offset="1" stop-color="#b04964"/>
    </linearGradient>
    <filter id="drop-shadow-1" filterUnits="userSpaceOnUse">
      <feOffset dx="-5" dy="6"/>
      <feGaussianBlur result="blur" stdDeviation="8"/>
      <feFlood flood-color="#000" flood-opacity=".5"/>
      <feComposite in2="blur" operator="in"/>
      <feComposite in="SourceGraphic"/>
    </filter>
    <linearGradient id="Dégradé_sans_nom_7-2" data-name="Dégradé sans nom 7" x1="405.24" y1="88.55" x2="146.7" y2="536.37" gradientTransform="translate(35.79 -72.8) rotate(7.02)" xlink:href="#Dégradé_sans_nom_7"/>
    <filter id="drop-shadow-2" filterUnits="userSpaceOnUse">
      <feOffset dx="-5" dy="6"/>
      <feGaussianBlur result="blur-2" stdDeviation="8"/>
      <feFlood flood-color="#000" flood-opacity=".5"/>
      <feComposite in2="blur-2" operator="in"/>
      <feComposite in="SourceGraphic"/>
    </filter>
  </defs>
  <g id="Calque_12" data-name="Calque 12">
    <path class="cls-1" d="M82.26,30.04l240.35-11.74c30.64-1.5,56.78,22.16,58.61,53.03l19.76,333.5c1.88,31.64-22.46,58.6-53.88,59.68l-240.56,8.3c-30.35,1.05-56.01-22.5-57.82-53.06L29.17,89.69c-1.86-31.33,22-58.13,53.09-59.65Z"/>
    <path class="cls-2" d="M179.24,34.58l238.52,31.89c30.4,4.07,51.84,32.06,48.06,62.75l-40.83,331.58c-3.87,31.46-32.68,53.57-63.78,48.96l-238.09-35.31c-30.04-4.45-51.02-32.25-47.28-62.64L116.24,83.66c3.84-31.15,32.14-53.2,62.99-49.07Z"/>
    <path class="cls-3" d="M277.34,53.61l224.93,85.52c28.67,10.9,43.15,43.05,32.46,72.07l-115.47,313.49c-10.96,29.74-44.06,44.69-73.28,33.1l-223.74-88.75c-28.23-11.2-42.3-43.05-31.72-71.78L204.81,87c10.85-29.45,43.44-44.45,72.54-33.39Z"/>
    <path class="cls-4" d="M364.75,236.78c3.54,16.78,4.69,34.21,6.84,51.3l71.33-66.16c8.46-7.85,21.76-7.05,29.23,1.74,7.05,8.31,6.27,20.71-1.77,28.07l-105.17,96.23c-8.66,7.92-22.64,3.24-24.72-8.3-6.88-38.06-6.81-78.46-20.02-114.72-6.52-17.89-26.01-29.16-44.65-28.54-34.61,1.15-47.79,46.84-26.48,70.57,8.2,9.13,20.95,12.81,32.88,14.05,6.73,.7,12.43,5.23,14.46,11.68,3.12,9.98-3.58,19.96-13.89,21.66-36.71,6.04-72.81-22.25-80.36-57.79-6.97-32.78,8.7-69.58,36.52-87.99,12.08-8,26.35-12.23,40.86-11.78,30.93,.96,57.28,18.5,72.38,45.14,6.26,11.04,10.03,22.78,12.57,34.84Z"/>
    <g>
      <path class="cls-4" d="M214.79,324.71l26.55,9.78c5.28,1.95,8.74,4.28,10.39,6.99,3.76,6.08,4.36,12.6,1.79,19.56l-.34,.93c-2.43,6.61-6.83,11.09-13.19,13.44-3.73,1.04-7.09,1.01-10.07-.09l-18.19-6.7-8.66,23.5c-.07,.18-.19,.23-.36,.17l-15.75-5.8c-.15-.05-.19-.17-.12-.35l21.34-57.93c.91-2.48,2.45-3.79,4.61-3.93,.86,.12,1.53,.26,2,.44Zm6.07,19.12l-2.95,8.01c-.35,1.41,.03,2.32,1.15,2.74l14.65,5.4c1.77,.65,3.45,.01,5.03-1.92,.27-.27,.51-.7,.73-1.29l.47-1.28c.44-2.92-.33-4.75-2.31-5.47l-16.77-6.18Z"/>
      <path class="cls-4" d="M267.59,344.15l26.55,9.78c6.02,2.22,9.81,5.11,11.38,8.67,2.87,5.58,3.06,11.76,.56,18.55s-7.18,11.63-13.79,13.82c-2.51,.62-4.11,.8-4.82,.54l-.1,.27,5.27,29.48-.31,.04-14.34-5.28c-2.98-1.1-4.5-3.25-4.56-6.45l-3.28-23.42-5.62-2.07-8.66,23.5c-.07,.18-.17,.24-.32,.18l-15.75-5.8c-.18-.07-.23-.19-.17-.36l21.39-58.06c.88-2.39,2.4-3.65,4.56-3.8,.86,.12,1.53,.26,2,.44Zm6.07,19.12l-3,8.14c-.32,1.32,.08,2.19,1.2,2.6l14.65,5.4c2.87,.49,4.82-.67,5.85-3.47l.23-.62c.68-3.13-.04-5.09-2.16-5.87l-16.77-6.18Z"/>
      <path class="cls-4" d="M346.11,372.22l1.81,.67c9,3.31,15.55,9.82,19.65,19.5,2.58,7.82,2.3,15.99-.84,24.52-4.15,11.27-11.63,18.52-22.43,21.74-7.28,1.74-13.97,1.49-20.08-.76l-2.17-.8c-8.38-3.09-14.67-9.11-18.88-18.06-3.19-8.08-3.2-16.41-.04-24.99l.46-1.24c4.43-12.04,12.76-19.37,24.99-22.01,6.28-1.04,12.12-.56,17.52,1.43Zm-16.77,48.66c4.37,1.61,8.69,1.38,12.97-.68,4.28-2.06,7.25-5.36,8.93-9.91s1.53-8.94-.38-13.28c-1.92-4.34-5.06-7.32-9.43-8.93s-8.68-1.38-12.94,.69c-4.26,2.07-7.22,5.35-8.89,9.87s-1.56,8.98,.35,13.32c1.9,4.34,5.04,7.31,9.41,8.92Z"/>
    </g>
  </g>
</svg>